<?xml version="1.0" encoding="iso-8859-1"?>
<!-- Generator: Adobe Illustrator 19.0.0, SVG Export Plug-In . SVG Version: 6.00 Build 0)  -->
<svg version="1.1" id="Capa_1" xmlns="http://www.w3.org/2000/svg" xmlns:xlink="http://www.w3.org/1999/xlink" x="0px" y="0px"
	 viewBox="0 0 512 512" style="enable-background:new 0 0 512 512;" xml:space="preserve">
<path style="fill:#3BBC56;" d="M396.734,60.92c0,0-55.956-8.632-66.146,45.938c0,0-44.885,28.191-30.116,79.182
	c0,0,18.86,20.012,49.925,8.33c0,0,52.655,23.732,72.424-33.358c11.908-34.388,39.071-46.472,58.791-50.645
	c11.023-2.333,15.357-15.705,8.007-24.244C473.314,67.179,443.08,45.282,396.734,60.92z"/>
<path style="fill:#30AA44;" d="M320.874,189.128c-15.404-53.183,31.411-82.587,31.411-82.587
	c5.579-29.878,24.311-41.586,40.85-45.972c-12.522-0.81-53.922,0.105-62.547,46.289c0,0-44.885,28.191-30.116,79.182
	c0,0,12.54,13.297,34.007,11.88C325.694,194.232,320.874,189.128,320.874,189.128z"/>
<path style="fill:#3BBC56;" d="M136.392,13.204c0,0,65.84,0.808,67.085,65.357c0,0,46.093,40.93,19.391,96.596
	c0,0-25.465,19.347-58.864,0c0,0-64.944,17.146-76.695-52.128C80.231,81.303,51.385,62.241,29.563,53.68
	c-12.198-4.786-14.611-20.954-4.545-29.343C47.347,5.726,86.221-13.606,136.392,13.204z"/>
<path style="fill:#30AA44;" d="M109.169,121.724c-7.231-42.623-36.697-62.094-58.988-70.84C37.72,45.996,35.256,29.48,45.538,20.91
	c9.567-7.974,22.109-16.075,37.226-20.776C58.207,1.49,38.566,13.045,25.018,24.337c-10.066,8.389-7.653,24.558,4.545,29.343
	c21.822,8.561,50.669,27.623,57.747,69.349c9.79,57.712,56.492,55.444,71.81,53.079
	C139.538,173.233,115.875,161.257,109.169,121.724z"/>
<g>
	<path style="fill:#83CC8E;" d="M269.681,240.559c-3.853-1.83-5.497-6.433-3.67-10.287c0.495-1.044,12.389-25.896,36.083-54.683
		c21.977-26.701,58.662-61.841,108.622-77.618c4.069-1.285,8.409,0.972,9.695,5.042c1.285,4.069-0.972,8.41-5.042,9.695
		c-46.205,14.591-80.469,47.414-101.078,72.38c-22.58,27.354-34.204,51.567-34.318,51.809
		C278.144,240.743,273.54,242.389,269.681,240.559z"/>
	<path style="fill:#83CC8E;" d="M240.005,236.354c-0.145-0.499-8.989-30.574-29.778-66.394
		c-19.07-32.859-52.422-77.476-103.015-103.434c-3.797-1.948-5.296-6.605-3.347-10.402c1.948-3.796,6.605-5.296,10.402-3.347
		c54.07,27.742,89.415,75.024,109.544,109.803c21.719,37.526,30.674,68.212,31.045,69.5c1.18,4.101-1.188,8.383-5.289,9.563
		C245.478,242.82,241.188,240.466,240.005,236.354z"/>
	<path style="fill:#83CC8E;" d="M257.254,242.368c-4.258-0.287-7.477-3.971-7.19-8.229c5.513-81.836,19.003-155.211,40.096-218.086
		c1.357-4.045,5.74-6.225,9.783-4.868c4.046,1.357,6.225,5.737,4.868,9.783c-20.672,61.621-33.903,133.692-39.328,214.209
		C265.201,239.361,261.607,242.641,257.254,242.368z"/>
</g>
<path style="fill:#C4356F;" d="M369.896,351.57c0-69.603-58.066-125.645-128.4-122.325c-63.042,2.975-113.981,54.37-116.436,117.435
	c-2.105,54.07,30.867,100.704,77.985,119.032c14.613,5.684,26.661,16.481,33.673,30.504l6.63,13.261
	c1.682,3.364,6.482,3.364,8.164,0c8.223-16.446,14.669-34.034,39.36-43.403C337.061,448.547,369.896,403.904,369.896,351.57z"/>
<path style="fill:#AF2B67;" d="M257.323,496.216c-7.012-14.024-19.06-24.82-33.673-30.504
	c-47.118-18.328-80.09-64.962-77.985-119.032c2.399-61.613,51.078-112.079,112.106-117.144c-5.335-0.446-10.767-0.551-16.274-0.291
	c-63.042,2.975-113.981,54.37-116.436,117.435c-2.105,54.07,30.867,100.704,77.985,119.032
	c14.613,5.684,26.661,16.481,33.673,30.504l6.63,13.261c1.682,3.364,6.482,3.364,8.164,0c2.071-4.141,4.029-8.355,6.195-12.492
	L257.323,496.216z"/>
<g>
</g>
<g>
</g>
<g>
</g>
<g>
</g>
<g>
</g>
<g>
</g>
<g>
</g>
<g>
</g>
<g>
</g>
<g>
</g>
<g>
</g>
<g>
</g>
<g>
</g>
<g>
</g>
<g>
</g>
</svg>
