<svg height="512pt" viewBox="-167 0 512 512.00005" width="512pt" xmlns="http://www.w3.org/2000/svg"><path d="m177.46875 143.03125-34.429688 198.78125-2.945312 16.957031-22.367188 129.144531c-1.203124 6.964844-4.828124 12.980469-9.917968 17.265626-5.082032 4.273437-11.632813 6.820312-18.699219 6.820312-14.125 0-26.207031-10.167969-28.617187-24.085938l-48.398438-279.394531-2.792969-16.152343-8.550781-49.335938c-5.296875-30.535156 18.222656-58.472656 49.210938-58.472656h78.296874c30.996094 0 54.503907 27.9375 49.210938 58.472656zm0 0" fill="#ff9b36"/><path d="m102.105469 508.929688c-3.929688 1.964843-8.347657 3.070312-12.996094 3.070312-14.128906 0-26.199219-10.167969-28.621094-24.089844l-59.742187-344.878906c-5.289063-30.546875 18.222656-58.472656 49.21875-58.472656h25.980468c-30.984374 0-54.496093 27.925781-49.207031 58.472656l59.746094 344.878906c1.617187 9.347656 7.589844 17.003906 15.621094 21.019532zm0 0" fill="#f78721"/><path d="m155.800781 109.710938c0-14.054688-29.730469-25.449219-66.402343-25.449219-36.667969 0-66.398438 11.394531-66.398438 25.449219 0 14.054687 29.730469 25.449218 66.398438 25.449218 36.671874 0 66.402343-11.394531 66.402343-25.449218zm0 0" fill="#f78721"/><path d="m26.980469 86.371094c10.207031 18.039062 30.785156 26.535156 50.019531 22.242187 4.320312-.964843 8.578125-2.582031 12.636719-4.871093 22.097656-12.507813 29.875-40.558594 17.371093-62.65625-4.75-8.394532-13.425781-17.695313-23.570312-25.324219-16.574219-12.464844-37.070312-20.457031-50.773438-12.703125-22.097656 12.507812-18.1875 61.214844-5.683593 83.3125zm0 0" fill="#479838"/><path d="m77 108.613281c4.320312-.964843 8.578125-2.582031 12.636719-4.871093 22.097656-12.507813 29.875-40.558594 17.371093-62.65625-4.75-8.394532-13.425781-17.695313-23.570312-25.324219-1.070312-.804688-2.15625-1.589844-3.257812-2.355469-10.53125 11.210938-18.984376 23.746094-23.269532 34.667969-8.453125 21.554687-3.859375 44.996093 9.960938 61.625 3.375.015625 6.773437-.335938 10.128906-1.085938zm0 0" fill="#317f21"/><path d="m71.484375 50.257812c-9.269531 23.640626 2.378906 50.316407 26.019531 59.585938 23.636719 9.269531 50.316406-2.378906 59.585938-26.019531 9.269531-23.636719 6.28125-72.40625-17.355469-81.675781-23.640625-9.269532-58.980469 24.472656-68.25 48.109374zm0 0" fill="#77bc4d"/><g fill="#f78721"><path d="m122.828125 212.878906c0 4.261719-3.460937 7.722656-7.726563 7.722656-56.824218 0-91.695312-8.734374-103.007812-12.082031l-2.792969-16.152343c1.289063-.25 2.667969-.15625 3.996094.316406.195313.074218 9.097656 3.175781 25.910156 6.234375 15.628907 2.84375 41.476563 6.234375 75.894531 6.234375 4.265626-.003906 7.726563 3.460937 7.726563 7.726562zm0 0"/><path d="m98.441406 280.503906c-18.039062 0-33.085937-3.414062-34.03125-3.632812-4.15625-.960938-6.746094-5.113282-5.78125-9.269532.960938-4.15625 5.117188-6.746093 9.269532-5.785156.570312.132813 31.769531 7.117188 55.34375.121094 4.089843-1.210938 8.394531 1.121094 9.605468 5.210938 1.214844 4.089843-1.117187 8.390624-5.207031 9.605468-9.492187 2.8125-19.753906 3.75-29.199219 3.75zm0 0"/><path d="m143.039062 341.8125-2.945312 16.957031c-10.527344 2.648438-21.003906 3.628907-30.722656 3.628907-15.304688 0-28.75-2.433594-37.601563-4.566407-4.140625-.996093-6.695312-5.171875-5.695312-9.320312 1-4.144531 5.171875-6.699219 9.324219-5.699219 11.464843 2.761719 40.589843 8.066406 67.640624-1zm0 0"/><path d="m108.5625 159.367188c-4.269531 0-7.726562-3.457032-7.726562-7.722657 0-4.269531 3.460937-7.726562 7.726562-7.726562 21.378906 0 35.636719-8.921875 35.777344-9.011719 3.589844-2.285156 8.363281-1.246094 10.664062 2.332031 2.300782 3.578125 1.289063 8.332031-2.277344 10.648438-.722656.46875-17.992187 11.480469-44.164062 11.480469zm0 0"/></g></svg>