<?xml version="1.0" ?><!DOCTYPE svg  PUBLIC '-//W3C//DTD SVG 1.1//EN'  'http://www.w3.org/Graphics/SVG/1.1/DTD/svg11.dtd'><svg enable-background="new 0 0 500 500" height="500px" id="Layer_1" version="1.1" viewBox="0 0 500 500" width="500px" xml:space="preserve" xmlns="http://www.w3.org/2000/svg" xmlns:xlink="http://www.w3.org/1999/xlink"><g><g><g><path d="M356.815,187.565l-41.386-41.386c-2.205-2.205-5.78-2.205-7.985,0l-23.051,23.051c-7.091,7.091-7.091,18.629,0,25.72      l0.256,0.256l-61.198,61.198l-5.295-5.295c-5.88-5.88-13.586-8.819-21.292-8.819c-7.706,0-15.412,2.94-21.292,8.819      l-7.149,7.149l0.001,0.001c-0.012,0.012-0.026,0.023-0.038,0.036c-21.314,21.314-26.783,82.871-16.235,93.419      c3.479,3.479,12.509,5.216,23.813,5.216c22.966,0,55.322-7.167,69.606-21.451c0.012-0.012,0.024-0.026,0.036-0.038l0.001,0.001      l7.149-7.149c11.759-11.759,11.759-30.825,0-42.584l-5.391-5.391l61.225-61.225c7.125,6.573,18.258,6.422,25.174-0.494      l23.051-23.051C359.02,193.345,359.02,189.77,356.815,187.565z M336.854,199.542l-33.402-33.402l7.984-7.985l33.402,33.402      L336.854,199.542z M245.581,319.448l-0.004-0.004l-7.984,8.042c-0.03,0.03-0.059,0.06-0.089,0.09      c-5.15,5.101-14.566,9.755-26.533,13.114c-11.206,3.145-23.965,4.949-35.008,4.949c-9.263,0-14.093-1.276-15.744-2.001      c-1.375-3.102-3.512-15.167-0.402-35.158c2.903-18.665,9.211-34.785,16.473-42.119c0.03-0.029,0.059-0.058,0.089-0.087      l7.871-7.817l-0.011-0.012c3.466-3.142,7.913-4.862,12.624-4.862c5.027,0,9.753,1.958,13.308,5.512l34.599,34.6      c3.555,3.554,5.512,8.281,5.512,13.307C250.284,311.633,248.622,316.008,245.581,319.448z M231.436,264.389l61.198-61.198      l7.945,7.945l-61.198,61.198L231.436,264.389z M316.028,210.616l-23.651-23.65c-2.689-2.689-2.689-7.063,0-9.751l3.09-3.09      l33.402,33.402l-3.09,3.09C323.091,213.304,318.717,213.304,316.028,210.616z"/></g><g><path d="M217.753,280.717c-2.828-2.828-6.573-4.63-10.543-5.072c-3.096-0.348-5.891,1.886-6.236,4.986      c-0.346,3.099,1.887,5.891,4.986,6.236c1.454,0.162,2.771,0.797,3.809,1.835l13.839,13.84c2.495,2.495,2.495,6.555,0.001,9.049      l-6.054,6.053h0c-0.151,0.151-0.299,0.315-0.429,0.478c-0.744,0.928-2.02,1.804-3.69,2.533      c-2.858,1.247-4.165,4.574-2.918,7.432c0.926,2.123,3,3.39,5.178,3.39c0.754,0,1.52-0.152,2.254-0.472      c3.261-1.423,5.873-3.29,7.77-5.557l5.873-5.873c6.897-6.897,6.897-18.12,0-25.018L217.753,280.717z"/></g></g></g></svg>