<svg height="512pt" viewBox="-154 0 512 512.001" width="512pt" xmlns="http://www.w3.org/2000/svg"><path d="m142.582031 492.871094-17.0625-45.625c-1.570312-4.203125-6.269531-6.332032-10.472656-4.765625h-25.269531c-4.238282-1.558594-8.902344.5625-10.476563 4.765625l-17.058593 45.625c-1.574219 4.214844.5625 8.902344 4.765624 10.476562.945313.347656 1.90625.515625 2.855469.515625 3.296875 0 6.394531-2.019531 7.621094-5.285156l7.621094-20.386719c1.714843-4.582031 8.488281-3.433594 8.605469 1.453125l.5625 24.21875c0 4.496094 3.640624 8.136719 8.140624 8.136719 4.496094 0 8.136719-3.640625 8.136719-8.136719l.503907-24.367187c.101562-4.894532 6.890624-6.050782 8.605468-1.464844l7.683594 20.546875c1.222656 3.265625 4.320312 5.285156 7.621094 5.285156.945312 0 1.914062-.167969 2.851562-.515625 4.203125-1.574218 6.339844-6.265625 4.765625-10.476562zm0 0" fill="#f5dcb4"/><path d="m118.6875 455.035156c0 8.988282-7.289062 16.277344-16.277344 16.277344-8.988281 0-16.273437-7.289062-16.273437-16.277344 0-8.988281 7.285156-16.273437 16.273437-16.273437 8.988282 0 16.277344 7.285156 16.277344 16.273437zm0 0" fill="#ebc9a0"/><path d="m175.6875 0h-32.421875c-3.371094 0-6.386719 2.074219-7.597656 5.21875l-57.671875 149.953125c-2.949219 7.664063-5.53125 15.441406-7.878906 23.28125l40.953124 27.804687c3.035157-14.488281 7.160157-28.753906 12.496094-42.625l59.054688-153.539062c1.871094-4.863281-1.722656-10.09375-6.933594-10.09375zm0 0" fill="#afdc82"/><path d="m83.753906 187.714844c2.949219-11.003906 6.410156-21.875 10.515625-32.542969l59.679688-155.171875h-10.683594c-3.371094 0-6.386719 2.074219-7.597656 5.21875l-57.671875 149.953125c-2.949219 7.664063-5.527344 15.441406-7.878906 23.285156zm0 0" fill="#96cd82"/><path d="m69.589844 15.597656h-29.269532c-5.511718 0-9.429687 5.367188-7.75 10.617188l61.703126 192.828125 32.550781-48.828125-46.292969-146.597656c-1.507812-4.773438-5.9375-8.019532-10.941406-8.019532zm0 0" fill="#96cd82"/><path d="m47.078125 15.597656h-6.757813c-5.511718 0-9.429687 5.367188-7.75 10.617188l61.703126 192.828125 24.414062-24.414063zm0 0" fill="#7dbe81"/><path d="m197.386719 48.148438h-32.421875c-3.367188 0-6.386719 2.074218-7.59375 5.214843l-57.675782 149.957031c-13.925781 36.203126-21.203124 74.605469-21.617187 113.375h48.746094v-5.59375c0-33.957031 6.253906-67.628906 18.441406-99.324218l59.054687-153.535156c1.871094-4.863282-1.71875-10.09375-6.933593-10.09375zm0 0" fill="#afdc82"/><path d="m164.964844 48.148438c-3.367188 0-6.386719 2.074218-7.59375 5.214843l-57.675782 149.957031c-14.34375 37.285157-21.695312 76.898438-21.695312 116.847657h16.273438c0-39.949219 7.355468-79.558594 21.695312-116.847657l59.683594-155.171874zm0 0" fill="#96cd82"/><path d="m105.128906 203.320312-57.675781-149.957031c-1.207031-3.140625-4.226563-5.214843-7.59375-5.214843h-32.425781c-5.210938 0-8.800782 5.230468-6.929688 10.09375l59.050782 153.539062c12.191406 31.695312 18.441406 65.363281 18.441406 99.320312v127.660157c0 8.988281 7.289062 16.273437 16.277344 16.273437h16.273437c8.988281 0 16.277344-7.289062 16.277344-16.273437v-118.59375c0-39.949219-7.355469-79.558594-21.695313-116.847657zm0 0" fill="#fff6d8"/><path d="m126.824219 438.761719h-16.273438c-8.992187 0-16.277343-7.289063-16.277343-16.277344v-111.382813c0-35.957031-6.617188-71.605468-19.527344-105.164062l-60.6875-157.789062h-6.625c-5.210938 0-8.800782 5.230468-6.929688 10.09375l59.050782 153.539062c12.191406 31.695312 18.441406 65.363281 18.441406 99.320312v127.660157c0 8.988281 7.289062 16.273437 16.277344 16.273437h16.273437c8.992187 0 16.277344-7.289062 16.277344-16.273437zm0 0" fill="#ffedb1"/><path d="m102.410156 267.867188c9.808594 0 18.300782 5.875 22.183594 14.214843-3.175781-26.890625-9.539062-53.414062-19.449219-78.804687l-57.691406-149.914063c-1.207031-3.140625-4.226563-5.214843-7.59375-5.214843h-32.425781c-5.210938 0-8.800782 5.230468-6.929688 10.09375l59.050782 153.539062c9.933593 25.824219 15.914062 52.964844 17.789062 80.5.003906-13.480469 11.585938-24.414062 25.066406-24.414062zm0 0" fill="#96cd82"/><path d="m59.554688 211.78125c9.933593 25.824219 15.914062 52.964844 17.792968 80.5 0-9.519531 6.113282-17.84375 14.0625-21.871094-3.082031-22.070312-8.632812-43.59375-16.664062-64.476562l-60.6875-157.785156h-6.625c-5.210938 0-8.800782 5.230468-6.929688 10.09375zm0 0" fill="#7dbe81"/></svg>