<svg height="512" viewBox="0 0 64 64" width="512" xmlns="http://www.w3.org/2000/svg"><path d="m52.05 20.84a4 4 0 0 0 -1.05-7.84 4 4 0 0 0 -1-2.58 4 4 0 1 0 -5.59-5.24 6.26 6.26 0 0 0 -1.41-.18 6 6 0 0 0 -2 .35 6 6 0 1 0 -2 11.65 6.25 6.25 0 0 0 1.79-.27 6 6 0 0 0 0 8.5 8 8 0 0 0 -3.79 6.77 8.12 8.12 0 0 0 .75 3.38 7 7 0 0 0 -1.75 4.62 6.82 6.82 0 0 0 .28 1.93 10.28 10.28 0 0 0 -3.28 8.07c0 5 2 9 4.5 9s-.5-3.45 1.5-8c.66-1.5 3.15-2.83 3.51-4h.49a7 7 0 0 0 6.81-8.61 8 8 0 0 0 3.19-6.39 8.33 8.33 0 0 0 -.13-1.42 6 6 0 0 0 -.82-9.74z" fill="#a1d51c"/><path d="m49 37a3.93 3.93 0 0 0 -.62-2.12 7.08 7.08 0 0 0 .62-2.88 7 7 0 0 0 -3-5.72 6 6 0 0 0 -1.44-8.09 5.93 5.93 0 0 0 .25-3.61 6 6 0 0 0 -4.21-4.36 6 6 0 0 0 -3.66.14c0-.12 0-.24 0-.36a4 4 0 0 0 -2-3.45 6 6 0 0 0 4.06 10.45 6.25 6.25 0 0 0 1.79-.27 6 6 0 0 0 0 8.5 8 8 0 0 0 -3.79 6.77 8.12 8.12 0 0 0 .75 3.38 7 7 0 0 0 -1.75 4.62 6.82 6.82 0 0 0 .28 1.93 10.28 10.28 0 0 0 -3.28 8.07 16.7 16.7 0 0 0 .17 2.39v-.06a8 8 0 0 1 9.13-6.22 4 4 0 0 0 4.7-4v-.11a8 8 0 0 0 -.14-1.48 4 4 0 0 0 2.14-3.52z" fill="#7ab92d"/><path d="m46 35a7 7 0 0 0 -3-5.72 6 6 0 0 0 -1.44-8.09 5.93 5.93 0 0 0 .25-3.61 6 6 0 0 0 -4.21-4.36 6 6 0 0 0 -3.66.14c0-.12 0-.24 0-.36a4 4 0 0 0 -4-4 4 4 0 0 0 -3.88-4 3.67 3.67 0 0 0 -2.65 1.13c-1.55 1.58-1.55 2.78-1.27 3.87h-.14a6 6 0 0 0 -4.59 9.86 8 8 0 0 0 -4.41 7.14 8.25 8.25 0 0 0 .32 2.24 6 6 0 0 0 -1.14 11.05 10 10 0 0 0 2.39 12.36 22.09 22.09 0 0 1 3.68 3.68 11.5 11.5 0 0 0 9.25 4.67h.93a2 2 0 0 0 1.74-2.34 8.1 8.1 0 0 1 0-3.29 8 8 0 0 1 9.13-6.22 4 4 0 0 0 4.7-4v-.15a8 8 0 0 0 -.14-1.48 4 4 0 0 0 2.14-3.52 3.93 3.93 0 0 0 -.62-2.12 7.08 7.08 0 0 0 .62-2.88z" fill="#c4f236"/><g fill="#a1d51c"><path d="m30.06 56.09a11.64 11.64 0 0 1 -4.81-3.76c-1-1.4-1.35-2.56-2.68-3.68a10 10 0 0 1 -3.57-7.65c0-1.7-.57-3.3.18-4.71a6 6 0 0 1 1.14-11 8.25 8.25 0 0 1 -.32-2.29 8 8 0 0 1 4.41-7.14 6 6 0 0 1 4.23-9.86 4 4 0 0 0 -2.52-1 3.67 3.67 0 0 0 -2.65 1.13c-1.61 1.58-1.61 2.78-1.33 3.87h-.14a6 6 0 0 0 -4.59 9.86 8 8 0 0 0 -4.41 7.14 8.25 8.25 0 0 0 .32 2.24 6 6 0 0 0 -1.14 11.05 10 10 0 0 0 2.39 12.36 22.09 22.09 0 0 1 3.68 3.68 11.5 11.5 0 0 0 9.25 4.67h.93a2 2 0 0 0 1.74-2.34 7.89 7.89 0 0 1 -.11-2.57z"/><path d="m30 38-3 5 2.2-9.86a3 3 0 0 0 -1.2-3.14l-2.41 9.63a20 20 0 0 0 -.59 4.81v10.56l1.88-7.15a19.94 19.94 0 0 1 4.4-8.6l3.72-4.25a2.52 2.52 0 0 0 -3.38.39 12.54 12.54 0 0 0 -1.62 2.61z"/><path d="m36.52 25.31a26.17 26.17 0 0 1 1.18-2.92c-1.79.94-3.4 2.86-4.42 6.23a20 20 0 0 0 -.83 8.43 7 7 0 0 0 2.72-5 25.84 25.84 0 0 1 1.35-6.74z"/><path d="m23 22.9v1.1l1.58-.63a6.38 6.38 0 0 0 3.94-5l.17-1.17a6.06 6.06 0 0 1 -4 3.5 2.33 2.33 0 0 0 -1.69 2.2z"/><path d="m23.27 38.78c.14 3.57.34 8.36.34 8.36s-2.34-6.65-3.53-11.61a2 2 0 0 0 -1.93-1.53l.52 3.36a48.78 48.78 0 0 0 5.58 16.28l.75 1.36.67-11.15a50.05 50.05 0 0 1 .69-5.73l.56-3.12a3.65 3.65 0 0 0 -3.65 3.78z"/></g><path d="m39 40a16.68 16.68 0 0 0 -9.26 2.81 24.5 24.5 0 0 1 4.93-6.17l1-.9a1 1 0 1 0 -1.34-1.48l-1 .9-.33.34v-2.09a12.29 12.29 0 0 1 4.65-9.63 1 1 0 0 0 -1.25-1.56 14.29 14.29 0 0 0 -5.4 11.18v4.19a26.27 26.27 0 0 0 -4.79 8.18 62.86 62.86 0 0 1 2.79-16.48 1 1 0 1 0 -2-.58c-.26.84-.48 1.69-.71 2.54a23.89 23.89 0 0 1 -2-6.26l.4-.17a8.41 8.41 0 0 0 5.31-7.82 1 1 0 0 0 -2 0 6.41 6.41 0 0 1 -3.91 5.92c-.09-.63-.09-1.28-.09-1.92a1 1 0 0 0 -2 0 25.84 25.84 0 0 0 3.63 13.18 64.87 64.87 0 0 0 -1.39 16.91 36.81 36.81 0 0 1 -4.74-18.09 1 1 0 0 0 -2 0 38.86 38.86 0 0 0 7.06 22.4v.2a1 1 0 0 0 1 .88h.07a1 1 0 0 0 .93-1 24.34 24.34 0 0 1 1.34-8.63l1.25-1.12a14.81 14.81 0 0 1 9.85-3.73 1 1 0 0 0 0-2z" fill="#7ab92d"/></svg>