<svg height="512" viewBox="0 0 64 64" width="512" xmlns="http://www.w3.org/2000/svg"><path d="m42.72 42c8.85-5.3 15.28-12.42 18.21-19.26a13.48 13.48 0 0 0 -2.72-7.23c-.2-.25-.41-.49-.62-.73-4.43 7.12-13.82 14.22-25.82 18.54-10.6 3.87-21 4.82-28.77 3.19a12.22 12.22 0 0 0 1.68 5.76c5.47 9.14 22.5 9.01 38.04-.27z" fill="#7ab92d"/><circle cx="14" cy="47" fill="#a1d51c" r="7"/><circle cx="27" cy="44" fill="#a1d51c" r="7"/><circle cx="40" cy="38" fill="#a1d51c" r="7"/><circle cx="51" cy="30" fill="#a1d51c" r="6"/><path d="m52 13.02v-.02l-7 9 5.42-1.36" fill="#a1d51c"/><path d="m58.8 16.61a11.33 11.33 0 0 0 -.74-.94c-.38 9.25-11 20.71-26.59 27.71-10.3 4.62-20.6 6.31-28.47 5.25a12.26 12.26 0 0 0 2.09 5.62c6.12 8.72 23.09 7.37 37.93-3s21.89-25.92 15.78-34.64z" fill="#e1ff85"/><path d="m58.06 15.67a18.46 18.46 0 0 1 -2.8 8.47l.74 1.86 2-5 3 4a13 13 0 0 0 -2.17-8.35 11.33 11.33 0 0 0 -.77-.98z" fill="#c4f236"/><path d="m60 18.79c.14 8.6-6.65 19.5-18 27.44-14.82 10.39-31.79 11.77-37.91 3.02-.12-.17-.21-.36-.32-.54l-.77-.08a12.26 12.26 0 0 0 2.09 5.62c6.12 8.72 23.09 7.37 37.93-3 13.66-9.6 20.73-23.51 16.98-32.46z" fill="#c4f236"/><path d="m46.4 7.2a2 2 0 0 0 1.6.8h4a2 2 0 0 1 2 2v4h4v-4a6 6 0 0 0 -6-6h-4a2 2 0 0 0 -1.6 3.2z" fill="#c4f236"/><path d="m54.63 4.62a5 5 0 0 1 .37 1.88 5.31 5.31 0 0 1 -1 3.11 1.72 1.72 0 0 1 0 .39v4h4v-4a6 6 0 0 0 -3.37-5.38z" fill="#a1d51c"/><g fill="#c4f236"><path d="m61 24-3-4-2 5-2-5-4 4 1-8a5 5 0 0 1 5-5 5 5 0 0 1 5 5z"/><path d="m24.19 50.4a1.8 1.8 0 0 0 1.09 2 6.82 6.82 0 0 0 2.72.6 7 7 0 0 0 6.78-5.3 1.81 1.81 0 0 0 -1-2.1 7 7 0 0 1 -9.62 4.81z"/><path d="m56.91 29c.29 1.68.11 3.51-3.48 6.14a4.26 4.26 0 0 1 -2.61.86 7.34 7.34 0 0 1 -.82-.09v.09a2 2 0 0 0 2 2 5.88 5.88 0 0 0 2.83-.79 6.05 6.05 0 0 0 3-3.92 5.92 5.92 0 0 0 -.65-4.29z"/><path d="m39.07 45.34a2 2 0 0 0 1.93 1.66 7 7 0 0 0 6.79-5.34 1.87 1.87 0 0 0 -1-2.14 7 7 0 0 1 -6.79 5.48 6.84 6.84 0 0 1 -.91-.06v.33z"/><path d="m20.7 49.07a7 7 0 0 1 -6.7 4.93 6.93 6.93 0 0 1 -3.69-1.07c0 .13-.06.27-.09.4a5.81 5.81 0 0 0 4.7 2.67h.08a7 7 0 0 0 6.54-4.52 2 2 0 0 0 -.84-2.41z"/><circle cx="12" cy="44" r="2"/><circle cx="25" cy="41" r="2"/><circle cx="37" cy="36" r="2"/><circle cx="48.5" cy="28.5" r="1.5"/></g><path d="m56.43 11a14 14 0 0 1 .57 4 12.33 12.33 0 0 1 -2.13 7.17l1.13 2.83 2-5 3 4v-8a5 5 0 0 0 -4.57-5z" fill="#a1d51c"/></svg>