<?xml version="1.0" encoding="iso-8859-1"?>
<!-- Generator: Adobe Illustrator 18.0.0, SVG Export Plug-In . SVG Version: 6.00 Build 0)  -->
<!DOCTYPE svg PUBLIC "-//W3C//DTD SVG 1.1//EN" "http://www.w3.org/Graphics/SVG/1.1/DTD/svg11.dtd">
<svg version="1.1" id="Capa_1" xmlns="http://www.w3.org/2000/svg" xmlns:xlink="http://www.w3.org/1999/xlink" x="0px" y="0px"
	 viewBox="0 0 57 57" style="enable-background:new 0 0 57 57;" xml:space="preserve">
<g>
	<g>
		<path style="fill:#D75A4A;" d="M30.928,57c-0.628-6.11-3.639-8.8-9.593-13.704c-4.853-3.997-5.867-6.846-5.481-12.333
			C16.625,20,30.928,20,30.928,20h-0.149c0,0,14.303,0,15.074,10.963c0.386,5.487-0.628,8.336-5.481,12.333
			C34.418,48.2,31.407,50.89,30.779,57H30.928z"/>
	</g>
	<path style="fill:#88C057;" d="M27.854,15.22l-4.998,1.046c-5.278,1.104-10.658-1.372-13.252-6.099L7.146,5.69l4.998-1.046
		c5.278-1.104,10.658,1.372,13.252,6.099L27.854,15.22z"/>
	<path style="fill:#659C35;" d="M49.854,0l-5.051,0.752c-5.334,0.794-9.521,4.982-10.315,10.315l-0.752,5.051l5.051-0.752
		c5.334-0.794,9.521-4.982,10.315-10.315L49.854,0z"/>
	<path style="fill:#7A3726;" d="M31.855,20c-0.335,0-0.662-0.168-0.851-0.474c-1.735-2.803-2.131-8.227-2.147-8.457
		c-0.039-0.551,0.377-1.029,0.928-1.067c0.553-0.031,1.029,0.377,1.067,0.928c0.003,0.051,0.378,5.162,1.853,7.543
		c0.291,0.47,0.146,1.086-0.324,1.376C32.216,19.952,32.034,20,31.855,20z"/>
	<g>
		<g>
			<path style="fill:#E6E6E6;" d="M40.372,43.296c0.049-0.04,0.091-0.079,0.139-0.118c-2.189-2.916-5.665-4.811-9.592-4.811
				c-3.958,0-7.457,1.924-9.643,4.879c0.021,0.017,0.038,0.033,0.059,0.05c5.764,4.747,8.763,7.43,9.518,13.14
				C31.609,50.726,34.607,48.043,40.372,43.296z"/>
		</g>
		<g>
			<path style="fill:#E6E6E6;" d="M30.928,57c-0.02-0.195-0.049-0.376-0.074-0.564c-0.025,0.188-0.054,0.37-0.074,0.564H30.928z"/>
		</g>
	</g>
</g>
<g>
</g>
<g>
</g>
<g>
</g>
<g>
</g>
<g>
</g>
<g>
</g>
<g>
</g>
<g>
</g>
<g>
</g>
<g>
</g>
<g>
</g>
<g>
</g>
<g>
</g>
<g>
</g>
<g>
</g>
</svg>
