<svg height="512pt" viewBox="-34 0 512 512" width="512pt" xmlns="http://www.w3.org/2000/svg"><path d="m43.828125 157.511719c-45.808594 21.308593-57.605469 93.046875-26.351563 160.230469 25.273438 54.332031 70.964844 89.046874 111.746094 89.074218 18.777344.007813 35.757813 11.132813 43.679688 28.160156-7.921875-17.027343-5.488282-37.179687 6.597656-51.550781 26.253906-31.210937 29.132812-88.519531 3.859375-142.851562-31.25-67.183594-93.722656-104.375-139.53125-83.0625zm0 0" fill="#96cd82"/><path d="m154.363281 387.578125c-.234375-.433594-.34375-.886719-.5625-1.324219-42.121093 1.269532-91.476562-29.5625-123.433593-81.570312-17.199219-27.988282-26.554688-57.746094-28.484376-85-4.960937 29.132812-.15625 64.203125 15.59375 98.058594 25.273438 54.332031 70.964844 89.046874 111.746094 89.074218 18.777344.011719 35.757813 11.132813 43.679688 28.160156-2.574219-5.535156-3.980469-11.402343-4.371094-17.28125-4.554688-10.117187-8.929688-20.328124-14.167969-30.117187zm0 0" fill="#7dbe81"/><path d="m391.097656 86.066406c-54.886718-24.976562-129.074218 20.03125-165.707031 100.527344-29.625 65.097656-25.617187 133.46875 6.027344 170.457031 14.570312 17.03125 17.671875 41.058594 8.386719 61.460938 9.285156-20.402344 29.441406-33.84375 51.851562-34.046875 48.675781-.433594 102.863281-42.320313 132.488281-107.417969 36.632813-80.5 21.835938-166.003906-33.046875-190.980469zm0 0" fill="#96cd82"/><path d="m205.648438 264.4375c-1.738282 30.835938 4.191406 59.050781 17.105468 80.398438.476563.789062.957032 1.566406 1.453125 2.339843 2.234375 3.46875 4.589844 6.816407 7.210938 9.875.03125.039063 2.816406 3.652344 4.039062 5.496094 1.121094 1.742187 2.152344 3.535156 3.097657 5.363281 8.039062 15.558594 8.703124 34.222656 1.25 50.601563 1.222656-2.6875 2.691406-5.210938 4.273437-7.640625l49.667969-113.21875zm0 0" fill="#7dbe81"/><path d="m298.914062 296.421875c-3.289062 0-6.375-2-7.605468-5.253906-1.585938-4.199219.53125-8.890625 4.730468-10.476563l97.8125-36.929687c4.195313-1.585938 8.886719.53125 10.472657 4.730469 1.589843 4.199218-.53125 8.890624-4.726563 10.476562l-97.8125 36.929688c-.945312.355468-1.921875.523437-2.871094.523437zm0 0" fill="#b4e6a0"/><path d="m201.5 512c-1.121094 0-2.253906-.230469-3.339844-.722656-4.089844-1.847656-5.90625-6.660156-4.058594-10.753906l161.335938-357.054688c1.847656-4.085938 6.65625-5.90625 10.753906-4.058594 4.085938 1.851563 5.902344 6.660156 4.054688 10.753906l-161.332032 357.058594c-1.359374 3-4.320312 4.777344-7.414062 4.777344zm0 0" fill="#cdf5a0"/><path d="m201.515625 512c-3.101563 0-6.0625-1.785156-7.421875-4.792969l-102.769531-228.738281c-1.839844-4.097656-.015625-8.90625 4.078125-10.746094 4.121094-1.851562 8.898437-.007812 10.746094 4.078125l102.769531 228.738281c1.84375 4.09375.019531 8.90625-4.078125 10.746094-1.085938.484375-2.214844.714844-3.324219.714844zm0 0" fill="#b4e6a0"/><path d="m120.390625 332.46875c-.984375 0-1.976563-.175781-2.953125-.558594l-62.460938-24.316406c-4.183593-1.625-6.246093-6.339844-4.617187-10.523438 1.617187-4.175781 6.308594-6.261718 10.523437-4.617187l62.457032 24.316406c4.183594 1.625 6.246094 6.339844 4.621094 10.523438-1.246094 3.207031-4.316407 5.175781-7.570313 5.175781zm0 0" fill="#b4e6a0"/><path d="m201.507812 407.804688c0-25.023438 14.265626-48.007813 36.949219-58.578126 49.265625-22.953124 84.957031-90.578124 84.957031-170.433593 0-98.742188-54.578124-178.792969-121.90625-178.792969-67.324218 0-121.902343 80.050781-121.902343 178.792969 0 79.855469 35.691406 147.480469 84.953125 170.433593 22.683594 10.570313 36.949218 33.554688 36.949218 58.578126zm0 0" fill="#96cd82"/><path d="m202.316406 342.34375c-44.652344-23.570312-82.171875-81.742188-93.875-154.167969-10.222656-63.25 1.734375-122.511719 28.1875-160.753906-34.207031 31.664063-57.023437 87.660156-57.023437 151.371094 0 79.855469 35.691406 147.480469 84.953125 170.433593 22.683594 10.570313 36.949218 33.554688 36.949218 58.578126 0-3.296876.328126-6.539063.808594-9.742188zm0 0" fill="#7dbe81"/><g fill="#b4e6a0"><path d="m201.507812 316.953125c-2.078124 0-4.160156-.796875-5.746093-2.382813l-97.117188-97.117187c-3.175781-3.175781-3.175781-8.316406 0-11.492187 3.171875-3.175782 8.316407-3.175782 11.488281 0l97.121094 97.117187c3.175782 3.175781 3.175782 8.316406 0 11.492187-1.585937 1.589844-3.667968 2.382813-5.746094 2.382813zm0 0"/><path d="m201.507812 251.9375c-2.078124 0-4.160156-.792969-5.746093-2.382812-3.175781-3.171876-3.175781-8.316407 0-11.492188l81.269531-81.269531c3.175781-3.175781 8.316406-3.175781 11.492188 0 3.175781 3.175781 3.175781 8.316406 0 11.492187l-81.269532 81.269532c-1.585937 1.589843-3.667968 2.382812-5.746094 2.382812zm0 0"/><path d="m201.507812 195.046875c-2.078124 0-4.160156-.792969-5.746093-2.378906l-56.890625-56.890625c-3.171875-3.175782-3.171875-8.316406 0-11.492188 3.175781-3.175781 8.320312-3.175781 11.492187 0l56.890625 56.890625c3.175782 3.175781 3.175782 8.316407 0 11.492188-1.585937 1.585937-3.667968 2.378906-5.746094 2.378906zm0 0"/></g><path d="m201.507812 512c-4.492187 0-8.128906-3.636719-8.128906-8.128906v-430.726563c0-4.492187 3.636719-8.128906 8.128906-8.128906 4.492188 0 8.125 3.636719 8.125 8.128906v430.726563c0 4.492187-3.632812 8.128906-8.125 8.128906zm0 0" fill="#cdf5a0"/></svg>